<?xml version="1.0" encoding="UTF-8" standalone="no"?>
<!-- Created with Inkscape (http://www.inkscape.org/) -->

<svg
   width="1200"
   height="500"
   id="svg2"
   version="1.1"
   inkscape:version="1.4.4 (dcaf3e7, 2026-05-05)"
   inkscape:export-filename="..\..\Souvenir\Assets\Sprites\Only Connect\Horned Viper.png"
   inkscape:export-xdpi="96"
   inkscape:export-ydpi="96"
   sodipodi:docname="Hieroglyphs.svg"
   xml:space="preserve"
   xmlns:inkscape="http://www.inkscape.org/namespaces/inkscape"
   xmlns:sodipodi="http://sodipodi.sourceforge.net/DTD/sodipodi-0.dtd"
   xmlns="http://www.w3.org/2000/svg"
   xmlns:svg="http://www.w3.org/2000/svg"
   xmlns:rdf="http://www.w3.org/1999/02/22-rdf-syntax-ns#"
   xmlns:cc="http://creativecommons.org/ns#"
   xmlns:dc="http://purl.org/dc/elements/1.1/"><defs
     id="defs3004" /><sodipodi:namedview
     id="base"
     pagecolor="#000000"
     bordercolor="#666666"
     borderopacity="1.0"
     inkscape:pageopacity="0"
     inkscape:pageshadow="2"
     inkscape:zoom="0.49426764"
     inkscape:cx="566.4947"
     inkscape:cy="391.4883"
     inkscape:document-units="px"
     inkscape:current-layer="layer1"
     showgrid="true"
     inkscape:showpageshadow="true"
     inkscape:pagecheckerboard="0"
     inkscape:deskcolor="#d1d1d1"><inkscape:grid
       id="grid1"
       units="px"
       originx="0"
       originy="0"
       spacingx="400"
       spacingy="250"
       empcolor="#0000ff"
       empopacity="0.25098039"
       color="#0000ff"
       opacity="0.1254902"
       empspacing="5"
       enabled="true"
       visible="true" /></sodipodi:namedview><metadata
     id="metadata7"><rdf:RDF><cc:Work
         rdf:about=""><dc:format>image/svg+xml</dc:format><dc:type
           rdf:resource="http://purl.org/dc/dcmitype/StillImage" /></cc:Work></rdf:RDF></metadata><g
     inkscape:label="Layer 1"
     inkscape:groupmode="layer"
     id="layer1"
     transform="translate(0,-784.36217)"><path
       style="baseline-shift:baseline;display:inline;overflow:visible;opacity:1;vector-effect:none;fill:#fff8de;fill-opacity:1;stroke:none;stroke-width:1;stroke-linecap:round;stroke-linejoin:round;enable-background:accumulate;stop-color:#000000;stop-opacity:1"
       d="m 968.66531,1182.7848 h 2e-5 c -0.45412,9.8892 -1.79804,19.1594 0.4336,27.7342 1.06642,4.0978 2.11124,8.396 3.74804,11.4102 1.63676,3.0142 3.26876,4.6478 6.88672,5.039 1.54534,0.168 2.25526,-0.132 2.91014,-0.6346 0.6549,-0.5016 1.2914,-1.4138 1.72266,-2.7618 0.86252,-2.696 0.56258,-6.9042 -0.61328,-9.5196 -3.84806,-8.5586 -6.03734,-18.9822 -4.2129,-28.7636 0.1326,-0.7104 0.46326,-1.3432 0.69922,-2.0196 -0.61394,0 -1.20542,0.04 -1.82422,0.02 -3.37814,-0.084 -6.57026,-0.2866 -9.75,-0.5018 z m 39.02529,-59.3184 c 0.094,0.16 0.2322,0.2812 0.3224,0.4452 1.9748,3.5822 3.1384,7.9672 1.8026,12.3614 -2.3064,7.5874 -7.848,12.5864 -14.09755,14.4394 -6.24966,1.8528 -13.1355,0.812 -18.76756,-2.7734 -5.71222,-3.6366 -8.97336,-9.7584 -8.5879,-16.09 0.1722,-2.8292 1.16362,-5.6152 2.7207,-8.2422 -11.33714,1.3834 -23.6188,3.9022 -34.90234,7.4982 -14.83654,4.7282 -27.74414,11.4308 -34.00976,17.9258 23.91962,19.43 44.21932,25.454 76.44336,26.2578 37.76305,0.942 65.60345,-17.4572 85.81045,-32.5156 -4.3998,-1.6442 -8.809,-3.3792 -13.4198,-5.3926 -16.7812,-7.3266 -27.456,-11.9642 -43.3146,-13.914 z m -20.34559,-1.0762 v 2e-4 c -1.39878,0 -3.01638,0.174 -4.49608,0.2364 -4.43322,3.0588 -6.31156,6.581 -6.50196,9.709 -0.20666,3.3944 1.35086,6.5958 4.90038,8.8554 3.70092,2.356 8.3105,3.0038 12.19726,1.8516 3.88678,-1.1524 7.12279,-3.8522 8.71679,-9.0958 0.5008,-1.6476 0.118,-3.8644 -1.1544,-6.1738 -1.14211,-2.072 -2.96327,-3.9572 -4.66395,-5.205 -2.83362,-0.114 -5.76948,-0.198 -8.99804,-0.178 z m -2.33984,-38.6484 -2e-5,4e-4 c 13.86864,-0.2138 26.16745,1.392 39.90025,5.2012 18.3108,5.0786 39.151,13.9594 70.5154,27.5526 a 4,4 0 0 1 2.0802,5.2618 4,4 0 0 1 -5.2618,2.08 c -31.3422,-13.5834 -51.9786,-22.3332 -69.4726,-27.1856 -17.4356,-4.836 -31.77951,-5.9064 -51.35741,-4.1464 -26.93398,4.8206 -49.18024,18.733 -67.0742,32.67 2.42036,2.558 4.4715,5.0492 6.3789,7.791 6.78086,-3.6586 14.62948,-6.805 23.0371,-9.4844 15.85592,-5.0532 33.27276,-8.1276 48.09768,-8.8106 a 4,4 0 0 1 1.06836,-0.054 c 1.44614,-0.054 3.01188,-0.2266 4.39842,-0.2266 30.20555,-0.11 43.86515,5.6054 66.89055,15.6582 15.9048,6.9452 29.3526,10.7652 50.5976,18.215 a 4,4 0 0 1 2.4512,5.0976 4,4 0 0 1 -5.0996,2.4512 c -11.1066,-3.8946 -20.1318,-6.8218 -28.6172,-9.7638 -17.0622,12.9238 -41.6122,30.5698 -74.19715,35.672 2.01935,1.0576 4.06295,2.1666 6.41995,3.3652 12.2826,6.2462 20.165,12.0264 32.7812,21.6368 9.7134,7.399 14.9966,11.7562 22.5898,13.5742 4.2634,1.0206 9.1296,1.346 13.2618,0.5956 4.1322,-0.7504 7.3696,-2.444 9.3788,-5.334 2.0498,-2.948 3.4284,-7.1846 3.3614,-10.6914 -0.068,-3.5068 -1.1324,-5.9408 -3.998,-7.4434 -1.4868,-0.7794 -3.922,-1.0122 -5.9278,-0.4432 -2.0058,0.5688 -3.348,1.6716 -3.8712,3.164 a 4,4 0 0 1 -5.0976,2.4532 4,4 0 0 1 -2.453,-5.0978 c 1.5378,-4.3878 5.3344,-7.107 9.2402,-8.2148 3.9058,-1.1078 8.1556,-0.8706 11.8242,1.0528 5.6642,2.9696 8.1756,8.8522 8.2812,14.3768 0.106,5.5248 -1.7486,11.0344 -4.791,15.4102 -3.4914,5.0214 -8.9584,7.6292 -14.5176,8.6388 -5.5592,1.0094 -11.3706,0.5536 -16.5546,-0.6876 -9.578,-2.293 -15.9782,-7.6804 -25.5742,-14.9902 -12.5714,-9.5762 -19.8136,-14.8954 -31.5606,-20.8692 -6.06733,-3.0854 -10.94527,-5.783 -13.37109,-6.457 -1.21298,-0.3372 -1.37566,-0.112 -1.08398,-0.2812 0.29168,-0.17 0.006,-0.2342 -0.27538,1.2774 -1.41036,7.5612 0.3526,16.6894 3.64648,24.0156 2.09026,4.649 2.53978,10.2258 0.93554,15.2402 -0.80212,2.5072 -2.20322,4.9326 -4.47656,6.6738 -2.27334,1.7412 -5.38262,2.588 -8.63476,2.2364 -6.2917,-0.6804 -10.656,-4.7494 -13.0586,-9.174 -2.4026,-4.4244 -3.44032,-9.2986 -4.45898,-13.2128 -2.82238,-10.8448 -1.14284,-21.004 -0.67774,-30.502 -25.38796,-2.8554 -45.15086,-10.9848 -66.74804,-29.33 a 4.0004,4.0004 0 0 1 -0.74806,-5.254 c 2.4997,-3.7828 6.1115,-7.1554 10.4629,-10.207 -2.7297,-3.5066 -6.88998,-8.7242 -7.81444,-9.4706 a 4.0004,4.0004 0 0 1 0.01,-6.2324 c 18.9233,-15.1872 43.64382,-31.4982 74.32228,-36.9454 a 4.0004,4.0004 0 0 1 0.33788,-0.046 c 5.08306,-0.461 9.88104,-0.7366 14.50392,-0.8066 z"
       id="path3012" /><path
       style="baseline-shift:baseline;display:inline;overflow:visible;opacity:1;vector-effect:none;fill:#fff8de;fill-opacity:1;stroke:none;stroke-width:1;stroke-linejoin:round;enable-background:accumulate;stop-color:#000000;stop-opacity:1"
       d="m 73.615222,1141.2351 v 0 c -4.22834,-0.4862 -11.28148,2.0146 -15.02342,5.461 -1.87098,1.7232 -2.83364,3.5024 -2.97852,4.8086 -0.1448,1.3062 0.11,2.5476 2.33398,4.5116 1.72442,1.523 5.7396,2.3692 10.89258,2.3692 5.15298,0 11.09566,-0.6216 16.5625,-0.3516 12.4795,0.6168 24.250658,7.7148 33.449218,12.4512 14.10406,7.2624 27.51512,11.6258 43.01562,13.0626 9.81834,0.91 19.6431,-1.955 29.18164,-5.7228 13.95944,-5.514 25.99162,-10.5728 42.03516,-10.7128 13.60688,-0.118 26.57524,4.3126 39.19726,8.4004 12.62202,4.0878 24.87838,7.8346 36.90038,7.2676 0.23244,-0.02 0.4849,-0.02 0.71876,-0.03 -12.65126,-1.7046 -23.4319,-6.1582 -33.38282,-10.9826 -11.53312,-5.5912 -22.1753,-11.3924 -34.26952,-13.9588 -19.85622,-4.2138 -40.2932,-1.5754 -59.0918,5.123 -23.49792,8.3728 -46.69534,3.6624 -67.39258,-5.6738 -14.22134,-6.415 -27.623138,-14.3514 -42.148438,-16.0216 z m 15.58594,-14.1934 v -6e-4 c 1.92308,-0.142 4.02056,0.132 6.18946,0.7832 a 4.0004,4.0004 0 0 1 1.4668,6.8556 c -2.25372,1.9494 -2.9871,2.7704 -3.45898,3.6698 9.014518,3.486 17.468518,7.9228 25.654278,11.6154 19.59062,8.837 40.36894,12.9278 61.41798,5.4276 19.89896,-7.0904 41.83102,-9.9972 63.4375,-5.412 13.5336,2.872 24.80736,9.1112 36.0996,14.5858 11.29224,5.4746 22.54686,10.2258 36.3789,10.9552 11.42526,0.6024 19.35804,-0.194 31.18556,-2.707 a 4.0004,4.0004 0 0 1 3.52148,6.873 c -12.56004,11.4166 -29.73738,10.5254 -41.53516,11.082 -13.89694,0.6554 -27.06706,-3.5414 -39.74218,-7.6464 -12.67514,-4.1052 -24.8744,-8.1158 -36.66212,-8.0118 -14.40774,0.126 -25.12368,4.6068 -39.16796,10.1542 -9.97504,3.9404 -21.04246,7.3414 -32.85742,6.2462 -16.5728,-1.5362 -31.14976,-6.2988 -45.93946,-13.914 -9.50158,-4.8924 -20.640638,-11.1028 -30.181638,-11.5742 -4.50156,-0.2226 -10.4206,0.3812 -16.18164,0.3612 -5.76104,0 -11.71322,-0.4322 -16.17578,-4.373 -3.62902,-3.2048 -5.42672,-7.4358 -4.98828,-11.3886 0.42744,-3.8536 2.61078,-7.032 5.32618,-9.592 -0.0604,-0.052 -0.128,-0.08 -0.1874,-0.136 -1.21478,-1.149 -2.43068,-2.723 -3.91406,-5.1328 a 4.0004,4.0004 0 0 1 2.92968,-6.0684 c 2.65386,-0.3192 5.66482,-0.4348 8.69726,0.418 2.1228,0.597 4.29344,1.9078 5.90236,3.8516 2.69798,-0.6258 5.43428,-0.9838 8.11326,-0.6758 1.66236,0.192 3.27976,0.493 4.89258,0.8066 1.2338,-1.9996 2.5325,-3.8924 4.64064,-5.3438 1.46728,-1.0102 3.2156,-1.567 5.13866,-1.709 z"
       id="path2992" /><path
       style="baseline-shift:baseline;display:inline;overflow:visible;opacity:1;vector-effect:none;fill:#fff8de;fill-opacity:1;stroke:none;stroke-width:1;stroke-linecap:round;stroke-linejoin:round;enable-background:accumulate;stop-color:#000000;stop-opacity:1"
       d="m 677.47289,962.92868 4e-5,10e-5 c -1.06266,0.1352 -2.19896,0.269 -3.02928,0.4414 -9.10302,1.89084 -17.84774,1.33522 -25.55274,2.25976 -0.98576,2.83682 -1.28116,4.83926 -1.16016,5.38086 0.148,0.66272 -0.0632,0.47216 1.1621,0.82032 2.45052,0.6963 9.02898,-0.014 15.26564,0.24804 a 4.0004,4.0004 0 0 1 0.0566,0.004 c 5.03718,0.2836 14.67532,-0.008 22.28906,-0.008 h 1.6543 c -3.66776,-2.88124 -7.31606,-5.79242 -10.68556,-9.14648 z m -113.2539,-46.98242 c -2.09548,-0.0442 -4.15332,0.2076 -6.03322,0.79296 -4.6596,1.45098 -7.67896,4.56694 -10.20702,8.89064 -2.52806,4.3237 -4.31678,9.7398 -6.11914,14.8496 -1.9683,5.58032 -4.56902,10.13652 -8.38868,13.48244 -3.81964,3.3459 -8.70638,5.27888 -14.53318,6.10546 -10.50696,1.4905 -22.65288,2.46492 -33.04298,3.14454 -14.71748,0.96266 -29.25436,0.3229 -43.4961,0.60154 -0.2718,0.006 -1.80736,0.5159 -3.33398,1.73048 -1.52662,1.21456 -3.08276,2.97278 -4.07228,4.56444 -0.68326,1.0992 -0.69626,1.49932 -0.82226,1.9668 h 44.4375 83.3047 c -0.27852,-4.74482 0.9611,-9.32258 2.916,-13.3574 2.6624,-5.49502 6.5837,-10.21356 10.20704,-14.00196 2.76692,-2.893 5.2598,-7.03756 6.33594,-11.02344 1.07614,-3.9859 0.82606,-7.54042 -1.15234,-10.37696 -3.09676,-4.43996 -9.71358,-7.23634 -16,-7.36914 z m 50.56444,-21.8711 c 3.24942,6.9856 4.89156,14.8344 3.73438,22.59376 -1.55056,10.39726 -4.63784,20.57212 -8.5957,30.16406 -3.90042,9.45274 -11.5931,15.44388 -16.48242,21.88282 -1.0897,1.43506 -2.083,2.35594 -3.08398,3.35936 h 13.1289 c 10.38772,0 20.55702,-4.42244 30.42774,-10.2207 12.41884,-7.29506 26.21908,-4.41016 37.25,-6.15038 -8.7176,-11.08876 -13.09298,-23.39336 -12.47852,-35.63282 0.26418,-5.26186 1.64154,-10.43896 3.66992,-15.5 -3.62458,-0.224 -7.25112,-0.40472 -10.8672,-0.7871 -9.69958,-0.95734 -19.8219,-2.24538 -29.46092,-6.21484 -2.61966,-0.95902 -4.979,-2.18766 -7.2422,-3.49416 z m 98.87892,-17.65038 c -0.98964,-0.0462 -2.10254,0.0206 -3.33204,0.2539 -10.59406,2.00944 -23.02988,7.47782 -28.6953,13.12304 -9.60734,9.5731 -14.43212,20.0975 -14.9629,30.66994 -0.53078,10.57242 3.22076,21.37454 11.65236,31.55664 6.04134,7.29562 13.74854,13.34774 21.7578,19.20312 a 4,4 0 0 1 0.51368,0.84374 h 10.29296 c 9.02436,0 14.97016,-0.0248 27.10156,0 8.22132,0.016 15.42818,0.6464 19.92774,-0.68358 2.24978,-0.665 3.80474,-1.61968 5.16796,-3.42774 1.3339,-1.76914 2.4854,-4.60354 3.10744,-9.02148 0.012,-11.63902 -9.4649,-22.36014 -16.56446,-30.6836 -14.17888,-16.59682 -40.4554,-24.4501 -61.5176,-24.5625 -1.17296,1.42622 -2.26918,2.99776 -3.26366,4.79882 -6.67006,12.08014 -3.47688,26.26734 7.25392,35.75978 13.42398,11.87482 33.16872,17.92702 49.3164,10.67578 a 4,4 0 0 1 5.2871,2.00976 4,4 0 0 1 -2.00976,5.28712 c -19.8045,8.89336 -42.58068,1.5661 -57.89452,-11.98048 -13.17974,-11.65874 -17.46406,-30.2121 -8.95704,-45.61914 4.65382,-8.4285 11.4001,-13.54306 18.61718,-17.05078 7.2171,-3.50772 14.93118,-5.60016 22.34766,-8.36132 0.98414,-0.36648 0.73942,-0.46628 0.69142,-0.26368 -0.048,0.2026 0.0902,0.0848 -0.34572,-0.43946 -0.65378,-0.78636 -2.52326,-1.94928 -5.49218,-2.08788 z m -193.91994,-8.62892 1.6e-4,-6e-5 c 0.55476,0.01 1.11938,0.125 1.7422,0.36328 1.24562,0.47664 2.8364,2.0835 3.0078,3.92968 a 4.0004,4.0004 0 0 1 -1.49414,3.50196 c -0.1584,0.1258 -1.03928,1.3997 -2.91014,2.73632 -2.23694,2.22006 -6.07854,1.90618 -7.63478,-1.36718 l 0.0292,0.0606 c -0.39562,-0.79706 -0.62396,-1.22738 -0.66016,-1.27538 -0.0362,-0.048 0.2744,0.1592 0.1562,0.123 a 4.0004,4.0004 0 0 1 1.22266,-7.82422 c 2.01228,0.0254 4.24464,0.1152 5.33594,-0.0936 l -0.47658,0.121 c 0.58122,-0.1872 1.12688,-0.2854 1.68164,-0.2754 z m 34.36524,-7.14648 -8e-5,-4e-4 c -1.49782,0.1382 -3.3988,0.61404 -5.39452,1.01172 -0.1744,0.0348 -1.54036,1.01918 -3.61916,2.45702 -1.0394,0.71894 -2.36222,1.53354 -4.166,1.84962 -1.8038,0.31606 -3.98114,-0.1062 -5.73634,-1.19336 0.0714,0.0442 -0.97458,-0.36414 -2.28126,-0.60742 -1.30664,-0.2433 -2.8885,-0.44882 -4.46482,-0.79298 -2.8912,-0.63122 -6.15048,-0.47496 -9.10158,0.4004 -3.05268,0.90548 -6.5008,1.67074 -10.14842,1.49414 -1.7133,4.97552 -3.8067,10.06684 -8.81642,14.2871 -2.67474,2.25324 -5.59806,6.03356 -8.63086,10.08984 a 4,4 0 0 1 1.60156,1.69922 c 0.59838,1.57248 0.4876,3.372 0.0742,4.59962 -0.41338,1.2276 -0.96536,2.0104 -1.32224,2.57226 -0.30248,0.47604 -0.40208,0.67878 -0.44728,0.76758 0.41508,1.42466 0.57228,2.68846 0.61328,3.8457 0.38246,0.018 0.79032,-0.012 1.1621,0.018 1.29688,0.1024 3.4412,0.1988 5.69922,0.9961 2.45048,0.8652 4.49414,2.20702 4.49414,2.20702 a 4,4 0 0 1 1.26564,5.51366 4,4 0 0 1 -5.51366,1.26564 c 0,0 -1.73546,-1.02664 -2.91018,-1.44142 -0.61832,-0.21832 -2.37532,-0.45426 -3.60742,-0.55466 0.1404,0.64554 0.27946,1.50148 0.44726,1.97264 0.40602,1.14002 0.64558,1.4034 1.125,1.6172 2.1144,0.9429 5.17972,0.9619 8.72072,0.9121 3.55212,-0.05 5.9878,0.50282 7.2578,0.1582 0.109,-0.0296 0.44628,-0.20784 1.17578,-0.95508 0.72952,-0.74722 1.697,-1.98914 3.4336,-3.07812 2.66226,-1.66944 5.88518,-2.73416 9.25976,-3.12304 2.25624,-0.26002 4.60624,-0.1856 6.86914,0.4336 1.1121,-1.73736 2.19958,-3.67864 3.70508,-5.87892 2.73568,-3.99822 5.17136,-6.23348 5.91406,-9.28126 1.15304,-4.73156 2.46188,-8.62878 1.7168,-11.19334 -0.63032,-2.16998 -1.03018,-4.81434 -0.1874,-7.72266 0.4214,-1.45418 1.25316,-3.02834 2.7051,-4.20704 1.45192,-1.1787 3.41826,-1.79284 5.39256,-1.79884 3.01422,-0.008 5.71234,-0.69178 7.73046,-2.2539 0.83492,-0.64626 0.91562,-1.21948 0.62698,-2.5664 -0.28868,-1.34692 -1.47128,-2.90574 -1.85354,-3.1621 -0.4488,-0.30104 -1.29122,-0.49564 -2.78906,-0.35744 z m 6.01368,-14.15038 -2e-5,-1.8e-4 c -1.66586,-0.1842 -3.3139,-0.164 -4.92384,0.1094 -9.48304,1.60994 -19.30128,3.27114 -29.51172,2.71874 -5.36558,-0.29028 -10.21992,2.85246 -13.05858,7.7383 1.43454,-0.2017 2.91344,-0.50714 4.44336,-0.96094 4.2062,-1.24766 8.74382,-1.49206 13.08202,-0.54492 1.07548,0.2348 2.62566,0.44484 4.22266,0.74218 1.597,0.29734 3.22498,0.55434 5.0293,1.67188 0.3809,0.2358 0.1366,0.1142 0.1426,0.1132 0.008,-0.001 0.37776,-0.1212 0.9961,-0.54884 1.23666,-0.85536 3.0499,-3.01414 6.60546,-3.72264 1.65038,-0.32886 3.80644,-0.90964 6.2246,-1.13282 2.41818,-0.22318 5.35042,-0.083 7.97852,1.67968 2.78484,1.8678 4.49416,4.73872 5.2207,8.12892 0.72656,3.39018 -0.0532,7.86158 -3.55272,10.5703 -3.81858,2.95576 -8.3922,3.91574 -12.60548,3.92774 -0.53264,0.002 -0.44584,0.0692 -0.37304,0.01 0.073,-0.0592 0.0246,-0.0774 -0.0624,0.22266 -0.174,0.60026 -0.1056,2.25524 0.1874,3.26366 1.76788,6.08506 -0.6821,11.44298 -1.62696,15.32032 -1.39056,5.70632 -5.0408,8.91816 -7.08398,11.9043 -1.5488,2.26358 -2.94758,5.65652 -5.88282,8.93358 -2.03268,2.26944 -3.1359,5.67058 -5.49218,9.6875 -1.43468,2.4458 -2.15614,5.65558 -2.57032,9.16992 -0.46496,3.94538 -1.29908,7.26582 -1.23828,10.13478 0.0254,1.1946 10e-4,2.31966 0,3.49218 0.627,-0.4035 1.37768,-0.70176 1.92774,-1.1836 2.47098,-2.16452 4.4252,-5.33554 6.11524,-10.12694 1.75034,-4.9624 3.61812,-10.8568 6.7578,-16.22656 3.1397,-5.36978 7.7981,-10.33036 14.73438,-12.49024 10.99776,-3.42458 24.30366,0.075 30.97266,9.63672 3.62254,5.1938 3.812,11.49238 2.31446,17.03906 -1.49754,5.54668 -4.59076,10.61422 -8.27736,14.46874 -3.30088,3.45128 -6.70288,7.65524 -8.78904,11.96094 -1.62044,3.34444 -2.42002,6.61462 -2.09768,9.86914 h 9.95704 c 2.23866,-4.11714 5.72962,-6.2876 7.17968,-8.19726 5.73056,-7.54676 12.5967,-13.15412 15.46096,-20.0957 3.75596,-9.10266 6.64414,-18.67768 8.07812,-28.29298 1.16756,-7.82894 -1.54646,-16.67402 -6.2871,-23.75 -4.76608,-7.11388 -8.20314,-14.07796 -13.75784,-18.90038 -4.12678,-3.58278 -6.36642,-8.06956 -8.52146,-11.85156 -2.15506,-3.782 -4.13918,-6.79564 -7.0586,-8.61134 -4.7108,-2.92978 -9.86178,-5.32426 -14.85938,-5.87694 z m 0.75586,-8 -1e-4,2.4e-4 c 6.84276,0.68618 13.1058,3.83412 18.32812,7.08204 4.84682,3.0144 7.52736,7.48492 9.78516,11.44726 2.2578,3.96234 4.17892,7.48142 6.81444,9.76954 4.1906,3.63816 7.13382,7.79982 9.78516,11.97266 7.09022,4.0842 12.85728,8.9906 19.23828,11.3125 a 4.0004,4.0004 0 0 1 0.1602,0.0624 c 8.38138,3.46764 17.72424,4.73426 27.2832,5.67774 a 4.0004,4.0004 0 0 1 0.0272,0.002 c 4.6271,0.48986 9.278,0.78592 13.9336,1.01172 2.64172,-4.40864 5.74498,-8.70654 9.75586,-12.70314 7.74602,-7.71842 20.92268,-13.05184 32.85156,-15.31446 7.1881,-1.36338 13.192,0.6392 16.4668,4.57814 1.6374,1.96946 2.6262,4.66152 1.97852,7.39842 -0.64768,2.73692 -2.94156,4.89444 -5.68554,5.91602 -7.84572,2.92098 -15.35134,5.00282 -21.64258,8.06056 -0.89124,0.43316 -1.69964,0.9314 -2.54102,1.40234 20.87346,1.94746 43.99382,10.14452 58.29688,26.88672 a 4.0004,4.0004 0 0 1 0.002,0.002 c 6.93794,8.13406 18.6936,20.30944 18.5,36.21288 a 4.0004,4.0004 0 0 1 -0.0352,0.47852 c -0.73182,5.49588 -2.25678,9.77826 -4.70506,13.0254 -2.44828,3.24714 -5.80362,5.25298 -9.28906,6.2832 -6.97088,2.06046 -14.5365,1.02772 -22.21094,1.01172 -12.11522,-0.0246 -18.047,0 -27.08594,0 h -24.38478 c -7.39556,0 -16.87934,0.32418 -22.74022,-0.006 l 0.0586,0.004 c -5.033,-0.21144 -11.37604,1.08446 -17.1172,-0.54688 -2.87056,-0.81568 -5.99476,-3.25076 -6.78124,-6.77148 -0.3477,-1.55708 -0.31448,-3.17148 -0.0448,-4.8828 -0.63904,0.29088 -1.30442,0.52272 -1.91406,0.88084 -10.38852,6.10242 -21.8576,11.32226 -34.48046,11.32226 H 478.60761 433.79317 c -1.79858,0 -3.5645,-0.336 -5.10744,-1.39844 -1.54292,-1.06242 -2.54792,-2.89318 -2.79492,-4.52342 -0.49402,-3.26052 0.77956,-5.81124 2.30664,-8.26758 1.52708,-2.45636 3.56468,-4.75416 5.88672,-6.60156 2.32204,-1.8474 4.89052,-3.40496 8.15626,-3.46876 14.58002,-0.28524 28.995,0.33882 43.1328,-0.58594 10.29628,-0.67346 22.3037,-1.64614 32.43946,-3.08398 0.181,-0.0258 0.28258,-0.0896 0.45898,-0.1172 0.014,-2.09248 0.0448,-4.2063 0.002,-6.2246 -0.092,-4.34036 0.91344,-8.03452 1.29102,-11.2383 0.4668,-3.96102 1.27652,-8.29426 3.61522,-12.28124 0.95882,-1.63456 1.78872,-3.61186 2.87698,-5.68946 -0.3022,0.012 -0.54962,-0.0462 -0.86328,-0.01 -2.19718,0.2532 -4.54092,1.0847 -5.9258,1.95312 -0.30114,0.1888 -0.9633,0.8688 -1.96092,1.89062 -0.99764,1.02184 -2.4838,2.45866 -4.80276,3.0879 -4.05668,1.10086 -7.2764,0.0914 -9.24218,0.1192 -3.41536,0.0482 -7.73746,0.33546 -12.08984,-1.60546 -2.9567,-1.31854 -4.60396,-3.993 -5.4043,-6.24024 -0.80034,-2.24724 -1.05574,-4.33856 -1.36522,-5.78516 -0.94868,-4.43416 -0.0346,-7.39952 -0.44924,-8.6797 -0.31146,-0.96204 -0.32906,-1.93504 -0.23826,-2.8535 a 4,4 0 0 1 -3.32424,-0.63868 4,4 0 0 1 -0.6289,-5.6211 c 4.80188,-6.00986 9.47606,-13.73004 15.4629,-18.77344 4.65162,-3.91858 5.97222,-9.02792 8.1992,-15.71092 3.26718,-9.80448 12.2855,-16.95176 22.69336,-16.38868 9.05546,0.4899 18.27668,-1.01056 27.74024,-2.61718 2.39242,-0.40626 4.73862,-0.45138 7.01954,-0.22266 z"
       id="path3815" /><path
       style="baseline-shift:baseline;display:inline;overflow:visible;opacity:1;vector-effect:none;fill:#fff8de;fill-opacity:1;stroke:none;stroke-width:1;stroke-linecap:round;stroke-linejoin:round;enable-background:accumulate;stop-color:#000000;stop-opacity:1"
       d="m 999.51373,919.24367 c -3.1642,3.449 -6.35414,6.2819 -8.28516,10.71484 -2.62136,6.01776 -2.62864,12.68636 1.0664,17.9707 2.04444,2.92378 4.78932,6.44612 7.46484,9.9336 3.09189,-3.95546 6.06129,-7.78066 8.15429,-11.3672 2.9348,-5.0289 3.4762,-11.6444 -2.3692,-19.49804 -2.217,-2.97878 -4.097,-5.34234 -6.03117,-7.7539 z m -0.0782,-53.39454 c -5.17472,5.77162 -10.26628,12.58576 -10.08788,20.44726 0.1852,8.16246 0.93252,9.53918 6.66016,16.22658 1.33534,1.5591 2.28674,2.7229 3.44334,4.0879 4.78175,-5.77756 10.23135,-11.36914 10.52735,-20.63478 0.2682,-8.39894 -3.6054,-12.38074 -9.5292,-18.94726 -0.292,-0.32366 -0.70053,-0.82884 -1.01377,-1.1797 z m 0.4629,-50.6289 c -3.33442,-0.0754 -5.32738,1.22146 -7.10352,4.08202 -1.77616,2.86058 -2.87274,7.4199 -2.73634,12.6836 0.1692,6.52536 4.92846,14.72328 9.81056,21.45312 6.53657,-7.42286 9.63797,-13.53312 9.74217,-22.76758 0.056,-5.01652 -0.9494,-9.09304 -2.5762,-11.60742 -1.6266,-2.51436 -3.5496,-3.76254 -7.13667,-3.84374 z m 0.17957,-7.99804 c 5.869,0.1326 10.8216,3.08758 13.6738,7.4961 2.852,4.40852 3.9278,9.9721 3.8594,16.04296 -0.132,11.62634 -4.8042,20.4252 -12.7052,29.11914 0.4786,0.55676 1.0436,1.3026 1.4824,1.78906 5.9002,6.53998 11.9434,13.37228 11.586,24.56056 -0.4254,13.3226 -8.8178,21.36956 -13.2578,26.67382 2.3384,2.87964 4.5972,5.75728 7.2462,9.3164 7.407,9.95208 7.3008,20.69926 2.8612,28.30664 -2.8184,4.82932 -6.51,9.53886 -10.0468,14.0547 2.4952,3.35934 4.9048,6.70976 6.8164,9.83202 7.8724,12.8583 10.447,20.23632 11.9766,32.60151 a 4,4 0 0 1 -3.4786,4.4609 4,4 0 0 1 -4.461,-3.4785 c -1.4542,-11.75687 -3.255,-16.98759 -10.8594,-29.40813 -1.3072,-2.1354 -3.3334,-4.74326 -5.11519,-7.19336 -0.96318,1.34238 -1.96172,2.69594 -2.74414,3.98046 -6.93064,11.3782 -11.6268,19.99778 -12.52346,32.41793 a 4,4 0 0 1 -4.27732,3.7012 4,4 0 0 1 -3.70118,-4.2774 c 1.02498,-14.19811 6.63428,-24.45325 13.66992,-36.00383 1.38046,-2.26636 2.95738,-4.51644 4.60742,-6.74218 -3.14704,-4.1201 -6.37852,-8.28538 -8.94726,-11.959 -5.51472,-7.88666 -5.36052,-17.68566 -1.84766,-25.75 2.97484,-6.82918 7.2197,-10.57094 10.33398,-13.93944 -1.39624,-1.65562 -2.60698,-3.12688 -4.29492,-5.09766 -6.08946,-7.10986 -8.37654,-12.1913 -8.58204,-21.24804 -0.26716,-11.7754 6.94764,-20.6318 12.8457,-26.90624 -5.75998,-7.34056 -11.86846,-17.1062 -12.13476,-27.37696 -0.1666,-6.42686 1.01636,-12.40866 3.9375,-17.11328 2.92114,-4.70462 8.04396,-7.99578 14.08021,-7.85938 z"
       id="path3974" /><path
       style="baseline-shift:baseline;display:inline;overflow:visible;opacity:1;vector-effect:none;fill:#fff8de;fill-opacity:1;stroke:none;stroke-width:1;stroke-linecap:round;stroke-linejoin:round;enable-background:accumulate;stop-color:#000000;stop-opacity:1"
       d="m 228.5851,809.13342 h -2e-5 c -0.1954,0.25818 -0.49696,0.68566 -0.85156,1.5215 -0.8219,1.93738 -1.6842,5.21988 -2.39258,9.3535 -1.41676,8.26726 -2.3352,20.00548 -2.86328,33.13868 -1.02854,25.57996 -0.6097,56.29934 -0.0762,78.87304 12.86152,8.25266 22.543,18.10554 28.91212,28.45898 -0.56084,-38.27314 -1.7331,-71.81348 -4.4004,-97.375 -1.92366,-18.4349 -4.64766,-32.93722 -8.17382,-42.20506 -1.7631,-4.63394 -3.74098,-7.90908 -5.56642,-9.72072 -1.64648,-1.63404 -2.95062,-2.09252 -4.58788,-2.04492 z m -75.69922,0 c -0.1954,0.25822 -0.49504,0.68572 -0.8496,1.5215 -0.8219,1.93736 -1.6842,5.21988 -2.39258,9.3535 -1.41678,8.26724 -2.33716,20.00548 -2.86524,33.13866 -1.02856,25.57998 -0.60776,56.29934 -0.0742,78.87306 12.86104,8.25256 22.54318,18.10578 28.9121,28.45898 -0.56082,-38.2731 -1.73502,-71.81348 -4.40234,-97.375 -1.92366,-18.4349 -4.64764,-32.93722 -8.17382,-42.20506 -1.7631,-4.63394 -3.74098,-7.90908 -5.56642,-9.72072 -1.64648,-1.63404 -2.9506,-2.09252 -4.58788,-2.04492 z m 74.39648,-8.01954 h 2e-5 c 4.28182,-0.42818 8.44334,1.32798 11.5254,4.38672 3.08202,3.05876 5.4032,7.28494 7.4082,12.5547 4.01,10.5395 6.69622,25.45398 8.6543,44.21874 3.1924,30.59364 4.28748,71.67558 4.69726,118.76368 0.0532,0.27388 0.1546,0.55074 0.20312,0.82422 2.33726,13.15002 2.37818,21.29886 1.72266,26.41986 -0.32776,2.5605 -0.83382,4.3662 -1.3418,5.6367 -0.50798,1.2705 -1.33594,2.3672 -1.33594,2.3672 a 4.0004,4.0004 0 0 1 -3.0293,1.3886 4.0004,4.0004 0 0 1 -4,-3.9882 c -0.0332,-10.9795 -0.1252,-21.33706 -0.21484,-31.73628 -3.12822,-14.9601 -14.61756,-31.7352 -35.22852,-44.3789 a 4.0004,4.0004 0 0 1 -1.90624,-3.31054 c -0.55566,-22.78134 -1.02346,-54.81734 0.0468,-81.43556 0.53516,-13.3091 1.4424,-25.23846 2.97266,-34.16796 0.76512,-4.46476 1.65714,-8.1642 2.91406,-11.12694 0.62844,-1.4814 1.33846,-2.79736 2.3828,-3.96682 1.04436,-1.16944 2.61426,-2.25762 4.5293,-2.44922 z m -75.69922,0 h 2e-5 c 4.28182,-0.42818 8.44334,1.32798 11.52538,4.38672 3.08204,3.05876 5.4032,7.28494 7.4082,12.5547 4.01002,10.5395 6.69622,25.454 8.6543,44.21874 3.19224,30.59196 4.28744,71.67106 4.69726,118.75586 0.0538,0.27646 0.156,0.556 0.20508,0.83204 2.33726,13.15 2.37624,21.29896 1.72072,26.41986 -0.32778,2.5605 -0.83382,4.3663 -1.3418,5.6367 -0.50798,1.2705 -1.334,2.3672 -1.334,2.3672 a 4.0004,4.0004 0 0 1 -3.03124,1.3886 4.0004,4.0004 0 0 1 -4,-3.9882 c -0.0332,-10.9774 -0.1234,-21.33302 -0.2129,-31.7304 -3.1264,-14.96162 -14.61678,-31.7394 -35.23046,-44.38478 a 4.0004,4.0004 0 0 1 -1.90624,-3.31054 c -0.55566,-22.78134 -1.0215,-54.81734 0.0488,-81.43556 0.53514,-13.3091 1.44044,-25.23846 2.9707,-34.16796 0.76512,-4.46476 1.65716,-8.1642 2.91406,-11.12694 0.62844,-1.4814 1.33846,-2.79736 2.3828,-3.96682 1.04436,-1.16944 2.61426,-2.25762 4.5293,-2.44922 z"
       id="path2998-1" /><path
       id="path4015"
       style="baseline-shift:baseline;display:inline;overflow:visible;opacity:1;vector-effect:none;fill:#fff8de;fill-opacity:1;stroke:none;stroke-width:1;stroke-linecap:round;stroke-linejoin:round;marker:none;enable-background:accumulate;stop-color:#000000;stop-opacity:1"
       d="m 522.85839,1076.6121 a 4.0004,4.0004 0 0 1 3.64648,2.3554 l 9.21094,20.418 9.21094,-20.418 a 4.0004,4.0004 0 0 1 7.29102,0 l 9.21092,20.418 9.21094,-20.418 a 4.0004,4.0004 0 0 1 7.29298,0 l 9.21094,20.418 9.21094,-20.418 a 4.0004,4.0004 0 0 1 7.291,0 l 9.21094,20.418 9.21094,-20.418 a 4.0004,4.0004 0 0 1 7.29296,0 l 9.21096,20.418 9.21094,-20.418 a 4.0004,4.0004 0 0 1 7.29102,0 l 9.21092,20.418 9.21094,-20.418 a 4.0004,4.0004 0 0 1 7.29296,0 l 12.85744,28.5 a 4,4 0 0 1 -2.00196,5.291 4,4 0 0 1 -5.29102,-2.0018 l -9.21094,-20.418 -9.21092,20.418 a 4.0004,4.0004 0 0 1 -7.29104,0 l -9.21092,-20.418 -9.21094,20.418 a 4.0004,4.0004 0 0 1 -7.29296,0 l -9.21094,-20.418 -9.21094,20.418 a 4.0004,4.0004 0 0 1 -7.29298,0 l -9.20898,-20.418 -9.21094,20.418 a 4.0004,4.0004 0 0 1 -7.29296,0 l -9.21094,-20.418 -9.21094,20.418 a 4.0004,4.0004 0 0 1 -7.29298,0 l -9.21092,-20.418 -9.21096,20.418 a 4.0004,4.0004 0 0 1 -7.291,0 l -9.21094,-20.418 -9.21094,20.418 a 4,4 0 0 1 -5.29102,2.0018 4,4 0 0 1 -2.00194,-5.291 l 12.85742,-28.5 a 4.0004,4.0004 0 0 1 3.64648,-2.3554 z m 0,64.5 a 4.0004,4.0004 0 0 1 3.64648,2.3554 l 9.21094,20.418 9.21094,-20.418 a 4.0004,4.0004 0 0 1 7.29102,0 l 9.21092,20.418 9.21094,-20.418 a 4.0004,4.0004 0 0 1 7.29298,0 l 9.21094,20.418 9.21094,-20.418 a 4.0004,4.0004 0 0 1 7.291,0 l 9.21094,20.418 9.21094,-20.418 a 4.0004,4.0004 0 0 1 7.29296,0 l 9.21096,20.418 9.21094,-20.418 a 4.0004,4.0004 0 0 1 7.29102,0 l 9.21092,20.418 9.21094,-20.418 a 4.0004,4.0004 0 0 1 7.29296,0 l 12.85744,28.5 a 4,4 0 0 1 -2.00196,5.291 4,4 0 0 1 -5.29102,-2.0018 l -9.21094,-20.418 -9.21092,20.418 a 4.0004,4.0004 0 0 1 -7.29104,0 l -9.21092,-20.418 -9.21094,20.418 a 4.0004,4.0004 0 0 1 -7.29296,0 l -9.21094,-20.418 -9.21094,20.418 a 4.0004,4.0004 0 0 1 -7.29298,0 l -9.20898,-20.418 -9.21094,20.418 a 4.0004,4.0004 0 0 1 -7.29296,0 l -9.21094,-20.418 -9.21094,20.418 a 4.0004,4.0004 0 0 1 -7.29298,0 l -9.21092,-20.418 -9.21096,20.418 a 4.0004,4.0004 0 0 1 -7.291,0 l -9.21094,-20.418 -9.21094,20.418 a 4,4 0 0 1 -5.29102,2.0018 4,4 0 0 1 -2.00194,-5.291 l 12.85742,-28.5 a 4.0004,4.0004 0 0 1 3.64648,-2.3554 z m 0,64.5 a 4.0004,4.0004 0 0 1 3.64648,2.3554 l 9.21094,20.418 9.21094,-20.418 a 4.0004,4.0004 0 0 1 7.29102,0 l 9.21092,20.418 9.21094,-20.418 a 4.0004,4.0004 0 0 1 7.29298,0 l 9.21094,20.418 9.21094,-20.418 a 4.0004,4.0004 0 0 1 7.291,0 l 9.21094,20.418 9.21094,-20.418 a 4.0004,4.0004 0 0 1 7.29296,0 l 9.21096,20.418 9.21094,-20.418 a 4.0004,4.0004 0 0 1 7.29102,0 l 9.21092,20.418 9.21094,-20.418 a 4.0004,4.0004 0 0 1 7.29296,0 l 12.85744,28.5 a 4,4 0 0 1 -2.00196,5.291 4,4 0 0 1 -5.29102,-2.0018 l -9.21094,-20.418 -9.21092,20.418 a 4.0004,4.0004 0 0 1 -7.29104,0 l -9.21092,-20.418 -9.21094,20.418 a 4.0004,4.0004 0 0 1 -7.29296,0 l -9.21094,-20.418 -9.21094,20.418 a 4.0004,4.0004 0 0 1 -7.29298,0 l -9.20898,-20.418 -9.21094,20.418 a 4.0004,4.0004 0 0 1 -7.29296,0 l -9.21094,-20.418 -9.21094,20.418 a 4.0004,4.0004 0 0 1 -7.29298,0 l -9.21092,-20.418 -9.21096,20.418 a 4.0004,4.0004 0 0 1 -7.291,0 l -9.21094,-20.418 -9.21094,20.418 a 4,4 0 0 1 -5.29102,2.0018 4,4 0 0 1 -2.00194,-5.291 l 12.85742,-28.5 a 4.0004,4.0004 0 0 1 3.64648,-2.3554 z" /></g></svg>
