o Surface
v -0.834 0.1 -0.256
v -0.834 0.1 -0.834
v 0 0.1 0
v -0.256 0.1 -0.834
v 0.256 0.1 -0.834
v 0.3556 0.1 -0.834
v 0.424 0.1 -0.7628
v 0.424 0.1 -0.6864
v 0.5102 0.1 -0.528
v 0.6618 0.1 -0.4452
v 0.7745 0.1 -0.4498
v 0.834 0.1 -0.391
v 0.834 0.1 -0.256
v 0.834 0.1 0.256
v 0.834 0.1 0.8346
v 0.256 0.1 0.8346
v -0.256 0.1 0.8346
v -0.834 0.1 0.8346
v -0.834 0.1 0.256
vn 0 1 0
g Surface
f  2//1  1//1 3//1
f  4//1  2//1 3//1
f  5//1  4//1 3//1
f  6//1  5//1 3//1
f  7//1  6//1 3//1
f  8//1  7//1 3//1
f  9//1  8//1 3//1
f 10//1  9//1 3//1
f 11//1 10//1 3//1
f 12//1 11//1 3//1
f 13//1 12//1 3//1
f 14//1 13//1 3//1
f 15//1 14//1 3//1
f 16//1 15//1 3//1
f 17//1 16//1 3//1
f 18//1 17//1 3//1
f 19//1 18//1 3//1
f  1//1 19//1 3//1
#h
