<?xml version="1.0" encoding="UTF-8" standalone="no"?>
<!-- Created with Inkscape (http://www.inkscape.org/) -->

<svg
   xmlns:dc="http://purl.org/dc/elements/1.1/"
   xmlns:cc="http://creativecommons.org/ns#"
   xmlns:rdf="http://www.w3.org/1999/02/22-rdf-syntax-ns#"
   xmlns:svg="http://www.w3.org/2000/svg"
   xmlns="http://www.w3.org/2000/svg"
   xmlns:sodipodi="http://sodipodi.sourceforge.net/DTD/sodipodi-0.dtd"
   xmlns:inkscape="http://www.inkscape.org/namespaces/inkscape"
   width="296.98486mm"
   height="296.98486mm"
   viewBox="0 0 296.98486 296.98486"
   version="1.1"
   id="svg8"
   inkscape:export-filename="C:\Users\danie\OneDrive\Documents\GitHub\KtaneSouvenir\Assets\Sprites\Tasque Managing\DD.png"
   inkscape:export-xdpi="85.526237"
   inkscape:export-ydpi="85.526237"
   inkscape:version="0.92.4 (5da689c313, 2019-01-14)"
   sodipodi:docname="_Template.svg">
  <defs
     id="defs2" />
  <sodipodi:namedview
     id="base"
     pagecolor="#ffffff"
     bordercolor="#666666"
     borderopacity="1.0"
     inkscape:pageopacity="0.0"
     inkscape:pageshadow="2"
     inkscape:zoom="0.26875582"
     inkscape:cx="1003.2817"
     inkscape:cy="428.95887"
     inkscape:document-units="mm"
     inkscape:current-layer="layer1"
     showgrid="false"
     inkscape:window-width="1366"
     inkscape:window-height="705"
     inkscape:window-x="-8"
     inkscape:window-y="-8"
     inkscape:window-maximized="1" />
  <metadata
     id="metadata5">
    <rdf:RDF>
      <cc:Work
         rdf:about="">
        <dc:format>image/svg+xml</dc:format>
        <dc:type
           rdf:resource="http://purl.org/dc/dcmitype/StillImage" />
        <dc:title></dc:title>
      </cc:Work>
    </rdf:RDF>
  </metadata>
  <g
     inkscape:label="Layer 1"
     inkscape:groupmode="layer"
     id="layer1"
     transform="translate(22.100157,-19.796039)">
    <path
       style="opacity:0.98999999;fill:#fff8dd;fill-opacity:1;stroke:none;stroke-width:27.90081787;stroke-linecap:round;stroke-linejoin:miter;stroke-miterlimit:4;stroke-dasharray:none;stroke-dashoffset:0;stroke-opacity:1"
       d="M 561.23047 0 L 0 561.23047 L 561.23047 1122.4629 L 1122.4629 561.23047 L 561.23047 0 z M 561.23047 53.451172 L 668.13281 160.35156 L 561.23047 267.25391 L 454.33008 160.35156 L 561.23047 53.451172 z M 427.60547 187.07617 L 534.50586 293.97852 L 427.60547 400.87891 L 320.70312 293.97852 L 427.60547 187.07617 z M 694.85742 187.07617 L 801.75977 293.97852 L 694.85742 400.87891 L 587.95703 293.97852 L 694.85742 187.07617 z M 293.97852 320.70312 L 400.87891 427.60547 L 293.97852 534.50586 L 187.07617 427.60547 L 293.97852 320.70312 z M 561.23047 320.70312 L 668.13281 427.60547 L 561.23047 534.50586 L 454.33008 427.60547 L 561.23047 320.70312 z M 828.48438 320.70312 L 935.38477 427.60547 L 828.48438 534.50586 L 721.58203 427.60547 L 828.48438 320.70312 z M 160.35156 454.33008 L 267.25391 561.23047 L 160.35156 668.13281 L 53.451172 561.23047 L 160.35156 454.33008 z M 427.60547 454.33008 L 534.50586 561.23047 L 427.60547 668.13281 L 320.70312 561.23047 L 427.60547 454.33008 z M 694.85742 454.33008 L 801.75977 561.23047 L 694.85742 668.13281 L 587.95703 561.23047 L 694.85742 454.33008 z M 962.11133 454.33008 L 1069.0117 561.23047 L 962.11133 668.13281 L 855.20898 561.23047 L 962.11133 454.33008 z M 293.97852 587.95703 L 400.87891 694.85742 L 293.97852 801.75977 L 187.07617 694.85742 L 293.97852 587.95703 z M 561.23047 587.95703 L 668.13281 694.85742 L 561.23047 801.75977 L 454.33008 694.85742 L 561.23047 587.95703 z M 828.48438 587.95703 L 935.38477 694.85742 L 828.48438 801.75977 L 721.58203 694.85742 L 828.48438 587.95703 z M 427.60547 721.58203 L 534.50586 828.48438 L 427.60547 935.38477 L 320.70312 828.48438 L 427.60547 721.58203 z M 694.85742 721.58203 L 801.75977 828.48438 L 694.85742 935.38477 L 587.95703 828.48438 L 694.85742 721.58203 z M 561.23047 855.20898 L 668.13281 962.11133 L 561.23047 1069.0117 L 454.33008 962.11133 L 561.23047 855.20898 z "
       id="rect4539"
       transform="matrix(0.26458333,0,0,0.26458333,-22.100157,19.796039)" />
    <rect
       style="opacity:0.98999999;fill:#d84000;fill-opacity:1;stroke:none;stroke-width:2.53385425;stroke-linecap:round;stroke-linejoin:miter;stroke-miterlimit:4;stroke-dasharray:none;stroke-dashoffset:0;stroke-opacity:1"
       id="rect4518"
       width="40"
       height="40"
       x="113.37071"
       y="-65.374664"
       transform="rotate(45)"
       inkscape:export-xdpi="85.526237"
       inkscape:export-ydpi="85.526237" />
  </g>
</svg>
