<?xml version="1.0" encoding="UTF-8" standalone="no"?>
<svg
   class="shapes"
   viewBox="0 0 111 333.00001"
   version="1.1"
   id="svg1256"
   sodipodi:docname="XYRaySprites.svg"
   width="111"
   height="333"
   inkscape:version="1.4.2 (f4327f4, 2025-05-13)"
   inkscape:export-filename="XYRaySprites.png"
   inkscape:export-xdpi="518.91895"
   inkscape:export-ydpi="518.91895"
   xmlns:inkscape="http://www.inkscape.org/namespaces/inkscape"
   xmlns:sodipodi="http://sodipodi.sourceforge.net/DTD/sodipodi-0.dtd"
   xmlns="http://www.w3.org/2000/svg"
   xmlns:svg="http://www.w3.org/2000/svg"
   xmlns:rdf="http://www.w3.org/1999/02/22-rdf-syntax-ns#"
   xmlns:cc="http://creativecommons.org/ns#"
   xmlns:dc="http://purl.org/dc/elements/1.1/">
  <metadata
     id="metadata1262">
    <rdf:RDF>
      <cc:Work
         rdf:about="">
        <dc:format>image/svg+xml</dc:format>
        <dc:type
           rdf:resource="http://purl.org/dc/dcmitype/StillImage" />
      </cc:Work>
    </rdf:RDF>
  </metadata>
  <defs
     id="defs1260" />
  <sodipodi:namedview
     pagecolor="#292929"
     bordercolor="#666666"
     borderopacity="1"
     objecttolerance="10"
     gridtolerance="10"
     guidetolerance="10"
     inkscape:pageopacity="0"
     inkscape:pageshadow="2"
     inkscape:window-width="2560"
     inkscape:window-height="1494"
     id="namedview1258"
     showgrid="true"
     inkscape:zoom="2.0278888"
     inkscape:cx="57.695471"
     inkscape:cy="111.19939"
     inkscape:window-x="2869"
     inkscape:window-y="-11"
     inkscape:window-maximized="1"
     inkscape:current-layer="svg1256"
     inkscape:document-rotation="0"
     inkscape:pagecheckerboard="false"
     inkscape:showpageshadow="2"
     inkscape:deskcolor="#d1d1d1">
    <inkscape:grid
       id="grid1"
       units="px"
       originx="0"
       originy="0"
       spacingx="37.000001"
       spacingy="37.000001"
       empcolor="#ffffff"
       empopacity="0.25098039"
       color="#0000ff"
       opacity="0.1254902"
       empspacing="1"
       enabled="true"
       visible="true" />
  </sodipodi:namedview>
  <g
     id="g28"
     transform="translate(-0.16666999999999987 -0.9999500000000126)">
    <path
       d="m 17.16666,153.50036 -6,28 20,-10 z"
       id="path1020"
       style="fill:none;stroke:#fff8dd;stroke-width:1;stroke-linejoin:round;stroke-opacity:1" />
    <path
       d="m 17.16666,153.50036 -11.0000003,15 5.0000003,13"
       id="path1022"
       style="fill:none;stroke:#fff8dd;stroke-width:1;stroke-linejoin:round;stroke-opacity:1" />
    <path
       d="m 6.1666597,168.50036 25.0000003,3"
       stroke-dasharray="2.01084, 1.00542"
       id="path1024"
       style="fill:none;stroke:#fff8dd;stroke-width:1;stroke-linejoin:round;stroke-opacity:1" />
  </g>
  <g
     id="g29"
     transform="translate(-0.8333000000000084 -1)">
    <path
       d="m 93.333303,152.50032 7.999997,5 7,10 -7,11 -7.999997,4 -8,-4 -7,-11 7,-10 z"
       stroke-width="0.9"
       id="path1028"
       style="fill:none;stroke:#fff8dd;stroke-linejoin:round;stroke-opacity:1" />
    <path
       d="m 85.333303,178.50032 8,-4 m -15,-7 8,-4 m 13,0 8.999997,4 m -14.999997,7 7.999997,4 m -7.999997,-4 -7,-11 7,-10 6,10 -6,11"
       stroke-width="0.9"
       stroke-dasharray="1.86424, 0.93212"
       id="path1030"
       style="fill:none;stroke:#fff8dd;stroke-linejoin:round;stroke-opacity:1"
       sodipodi:nodetypes="ccccccccccccc" />
    <path
       d="m 85.333303,157.50032 8,4 m -15,6 8,4 m 13,0 8.999997,-4 m -14.999997,-6 7.999997,-4 m -7.999997,4 -7,10 7,11 6,-11 -6,-10"
       stroke-width="0.9"
       id="path1032"
       style="fill:none;stroke:#fff8dd;stroke-linejoin:round;stroke-opacity:1"
       sodipodi:nodetypes="ccccccccccccc" />
  </g>
  <g
     id="g30"
     transform="translate(-0.5 -1)">
    <circle
       cx="56.000034"
       cy="167.49953"
       fill="none"
       stroke-width="1.8"
       id="ellipse996"
       r="13.6"
       style="stroke:#fff8dd;stroke-width:1;stroke-linejoin:round;stroke-dasharray:none;stroke-opacity:1" />
    <path
       d="m 69.500034,168.09953 a 13,3 0 0 1 -7,2 13,3 0 0 1 -14,0 13,3 0 0 1 -6,-2"
       fill="none"
       stroke-width="1.8"
       id="path998"
       style="stroke:#fff8dd;stroke-width:1;stroke-linejoin:round;stroke-dasharray:none;stroke-opacity:1" />
    <path
       d="m 69.500034,168.09953 a 13,3 0 0 0 -7,-2 13,3 0 0 0 -14,0 13,3 0 0 0 -6,2"
       fill="none"
       stroke-width="1.8"
       stroke-dasharray="3.6, 1.8"
       id="path1000"
       style="stroke:#fff8dd;stroke-width:1;stroke-linejoin:round;stroke-dasharray:2, 1;stroke-dashoffset:0;stroke-opacity:1" />
  </g>
  <g
     id="g31"
     transform="translate(-0.16662999999999784 2.5001499999999908)">
    <path
       d="m 31.224924,209.6148 c -0.384282,1.23172 -2.657904,2.456 -6.058309,3.11662 -4.022214,0.71453 -8.977786,0.71453 -13,0 -3.4004053,-0.66062 -5.6157193,-1.8849 -6.0000003,-3.11662"
       id="path1054"
       style="fill:none;stroke:#fff8dd;stroke-width:1.2;stroke-linejoin:round;stroke-opacity:1"
       sodipodi:nodetypes="cccc" />
    <path
       d="m 31.166615,209.73142 a 13,4 0 0 0 -6,-4 13,4 0 0 0 -13,0 13,4 0 0 0 -6.0000003,4"
       stroke-dasharray="2.31436, 1.15718"
       id="path1056"
       style="fill:none;stroke:#fff8dd;stroke-width:1.2;stroke-linejoin:round;stroke-opacity:1" />
    <path
       d="M 6.1605827,208.51246 19.166615,188.73142 31.093493,208.39681"
       id="path1058"
       style="fill:none;stroke:#fff8dd;stroke-width:1.2;stroke-linejoin:round;stroke-opacity:1"
       sodipodi:nodetypes="ccc" />
  </g>
  <g
     id="g32"
     transform="translate(-0.8333000000000084 2.500150000000019)">
    <path
       d="m 106.43383,200.99946 -12.277037,14.62785 -13.92396,-8.67315 v -11.9094 l 13.92396,-8.67315 z"
       stroke-width="1.05805"
       id="path1062"
       style="fill:none;stroke:#fff8dd;stroke-linejoin:round;stroke-opacity:1" />
    <path
       d="m 94.156793,186.37161 -13.92396,20.58255 26.200997,-5.9547"
       stroke-width="1.05236"
       id="path1064"
       style="fill:none;stroke:#fff8dd;stroke-linejoin:round;stroke-opacity:1"
       sodipodi:nodetypes="ccc" />
    <path
       d="m 94.156793,215.62731 -13.92396,-20.58255 26.200997,5.9547"
       stroke-width="1.05236"
       stroke-dasharray="4, 2"
       id="path1066"
       style="fill:none;stroke:#fff8dd;stroke-linejoin:round;stroke-opacity:1"
       sodipodi:nodetypes="ccc" />
  </g>
  <g
     id="g33"
     transform="translate(-0.5 2.5)">
    <path
       d="m 58.500034,188.49958 10,5 v 16 l -14,4 -11,-5 v -15 z"
       stroke-width="0.8"
       id="path1002"
       style="fill:none;stroke:#fff8dd;stroke-linejoin:round;stroke-opacity:1" />
    <path
       d="m 43.500034,193.49958 11,5 v 15 m 0,-15 14,-5"
       stroke-width="0.8"
       id="path1004"
       style="fill:none;stroke:#fff8dd;stroke-linejoin:round;stroke-opacity:1" />
    <path
       d="M 68.500034,208.49958 58.5001,203.92235 v -15.42277 m 0,15.42277 -15.000066,4.57723"
       stroke-width="0.8"
       stroke-dasharray="1.678, 0.839"
       id="path1006"
       style="fill:none;stroke:#fff8dd;stroke-linejoin:round;stroke-opacity:1"
       sodipodi:nodetypes="ccccc" />
  </g>
  <g
     id="g34"
     transform="translate(-0.16666999999999987 0.2650000000000148)">
    <path
       d="m 19.166668,116.73464 10,3 -4,8 h -13 l -4.0000003,-8 z m -11.0000003,17 4.0000003,8 h 13 l 4,-8"
       id="path1046"
       style="fill:none;stroke:#fff8dd;stroke-width:0.9;stroke-linejoin:round;stroke-opacity:1" />
    <path
       d="m 8.1666677,133.73464 11.0000003,-3 10,3 m -10,-17 v 14"
       stroke-dasharray="1.8076, 0.9038"
       id="path1048"
       style="fill:none;stroke:#fff8dd;stroke-width:0.9;stroke-linejoin:round;stroke-opacity:1" />
    <path
       d="m 8.1666677,119.73464 v 14 m 4.0000003,-6 v 14 m 13,-14 v 14 m 4,-22 v 14"
       id="path1050"
       style="fill:none;stroke:#fff8dd;stroke-width:0.9;stroke-linejoin:round;stroke-opacity:1" />
  </g>
  <g
     id="g35"
     transform="translate(-0.8333499999999958 0.2663000000000011)">
    <ellipse
       cx="93.333298"
       cy="119.14059"
       rx="9.900157"
       ry="3.227123"
       id="ellipse1036"
       style="fill:none;stroke:#fff8dd;stroke-width:1.09394;stroke-linejoin:round;stroke-opacity:1" />
    <path
       d="m 103.12406,139.37848 a 9.84546,3.28182 0 0 1 -4.922727,2.73485 9.84546,3.28182 0 0 1 -9.84546,0 9.84546,3.28182 0 0 1 -4.92273,-2.73485"
       id="path1038"
       style="fill:none;stroke:#fff8dd;stroke-width:1.09394;stroke-linejoin:round;stroke-opacity:1" />
    <path
       d="m 103.12406,140.47242 a 9.84546,3.28182 0 0 0 -4.922727,-2.73485 9.84546,3.28182 0 0 0 -9.84546,0 9.84546,3.28182 0 0 0 -4.92273,2.73485"
       stroke-dasharray="3.28182, 1.09394"
       id="path1040"
       style="fill:none;stroke:#fff8dd;stroke-width:1.09394;stroke-linejoin:round;stroke-opacity:1" />
    <path
       d="m 83.433143,139.92545 v -21.33183 m 19.690917,21.33183 v -21.33183"
       id="path1042"
       style="fill:none;stroke:#fff8dd;stroke-width:1.09394;stroke-linejoin:round;stroke-opacity:1" />
  </g>
  <g
     id="g36"
     transform="translate(-0.5 0.26499999999998636)">
    <path
       d="m 56.50002,114.23518 14,16 -14,14 -15,-16 z"
       fill="none"
       id="path1010"
       style="stroke:#fff8dd;stroke-linejoin:round;stroke-opacity:1" />
    <path
       d="m 56.50002,114.23518 -6,17 6,13"
       fill="none"
       id="path1012"
       style="stroke:#fff8dd;stroke-linejoin:round;stroke-opacity:1" />
    <path
       d="m 41.50002,128.23518 9,3 20,-1"
       fill="none"
       id="path1014"
       style="stroke:#fff8dd;stroke-linejoin:round;stroke-opacity:1" />
    <path
       d="m 41.50002,128.23518 18,-2 11,4"
       fill="none"
       stroke-dasharray="1.936, 0.968"
       id="path1016"
       style="stroke:#fff8dd;stroke-linejoin:round;stroke-opacity:1" />
    <path
       d="m 56.50002,114.23518 2,12 -2,18"
       fill="none"
       stroke-dasharray="1.936, 0.968"
       id="path1018"
       style="stroke:#fff8dd;stroke-linejoin:round;stroke-opacity:1" />
  </g>
  <g
     id="g37"
     transform="translate(-0.166640000000001 0.6676999999999964)">
    <ellipse
       cx="18.525564"
       cy="54.832302"
       rx="14.371274"
       ry="9.7553349"
       id="ellipse1172"
       style="fill:none;stroke:#fff8dd;stroke-width:0.95174;stroke-linejoin:round;stroke-opacity:1" />
    <path
       d="m 33.182361,54.87989 a 14.2761,4.28283 0 0 1 -7.61392,3.80696 14.2761,4.28283 0 0 1 -14.2761,0 14.2761,4.28283 0 0 1 -7.1380503,-3.80696"
       id="path1174"
       style="fill:none;stroke:#fff8dd;stroke-width:0.95174;stroke-linejoin:round;stroke-opacity:1" />
    <path
       d="m 4.1542907,54.87989 a 14.2761,4.28283 0 0 1 7.1380503,-3.80696 14.2761,4.28283 0 0 1 14.2761,0 14.2761,4.28283 0 0 1 7.61392,3.80696"
       stroke-dasharray="1.90348, 0.95174"
       id="path1176"
       style="fill:none;stroke:#fff8dd;stroke-width:0.95174;stroke-linejoin:round;stroke-opacity:1" />
  </g>
  <g
     id="g38"
     transform="translate(-0.8332999999999942 0.6676999999999964)">
    <path
       d="m 85.327593,61.332329 11,3 10.999997,-3"
       fill="none"
       stroke-width="0.9"
       id="path1128"
       style="stroke:#fff8dd;stroke-linejoin:round;stroke-opacity:1" />
    <path
       d="m 85.327593,61.332329 11,-3 10.999997,3 m -15.999997,-16 5,13"
       fill="none"
       stroke-width="0.9"
       stroke-dasharray="1.88, 0.940002"
       id="path1130"
       style="stroke:#fff8dd;stroke-linejoin:round;stroke-opacity:1" />
    <path
       d="m 79.327593,48.332329 6,13 m 6,-10 5,13 m 5.999997,-16 5,13 m -27.999997,-13 12,3 10.999997,-3 m -22.999997,0 12,-3 10.999997,3"
       fill="none"
       stroke-width="0.9"
       id="path1132"
       style="stroke:#fff8dd;stroke-linejoin:round;stroke-opacity:1" />
  </g>
  <g
     id="g39"
     transform="translate(-0.5 0.6676000000000002)">
    <path
       d="m 56.000034,44.332352 7,6 -3,9 h -9 l -3,-9 z"
       id="path1070"
       style="fill:none;stroke:#fff8dd;stroke-width:0.8;stroke-linejoin:round;stroke-opacity:1" />
    <path
       d="m 56.000034,65.332352 7,-5 -3,-9 h -9 l -3,9 z"
       stroke-dasharray="1.677, 0.839"
       id="path1072"
       style="fill:none;stroke:#fff8dd;stroke-width:0.8;stroke-linejoin:round;stroke-opacity:1" />
    <path
       d="m 56.000034,40.332352 8,3 6,7 v 9 l -6,8 -8,2 -9,-2 -5,-8 v -9 l 5,-7 z m 0,4 v -4 m -8,10 h -6 m 21,0 h 7 m -19,9 -4,8 m 13,-8 4,8"
       id="path1074"
       style="fill:none;stroke:#fff8dd;stroke-width:0.8;stroke-linejoin:round;stroke-opacity:1" />
    <path
       d="m 56.000034,65.332352 v 4 m 7,-9 7,-1 m -22,1 -6,-1 m 9,-8 -4,-8 m 13,8 4,-8"
       stroke-dasharray="1.6774, 0.8387"
       id="path1076"
       style="fill:none;stroke:#fff8dd;stroke-width:0.8;stroke-linejoin:round;stroke-opacity:1" />
  </g>
  <g
     id="g40"
     transform="translate(-0.16666999999999987 -0.03100000000000591)">
    <path
       d="m 26.166661,290.03093 h -15 l -7.0000003,-13 7.0000003,-12 h 15 l 7,12 z"
       stroke-width="0.9"
       id="path1104"
       style="fill:none;stroke:#fff8dd;stroke-linejoin:round;stroke-opacity:1" />
    <path
       d="m 19.166661,269.03093 7,12 h -14 z"
       id="path1106"
       style="fill:none;stroke:#fff8dd;stroke-linejoin:round;stroke-opacity:1" />
    <path
       d="m 19.166661,285.03093 7,-12 h -14 z"
       stroke-dasharray="2.04344, 1.0217"
       id="path1108"
       style="fill:none;stroke:#fff8dd;stroke-linejoin:round;stroke-opacity:1" />
    <path
       d="m 11.166661,265.03093 1,8 -8.0000003,4 m 22.0000003,-12 v 8 l 7,4 m -22,13 8,-5 7,5"
       stroke-width="0.9"
       stroke-dasharray="1.884, 0.94212"
       id="path1110"
       style="fill:none;stroke:#fff8dd;stroke-linejoin:round;stroke-opacity:1" />
    <path
       d="m 11.166661,265.03093 8,4 7,-4 m -22.0000003,12 8.0000003,4 -1,9 m 22,-13 -7,4 v 9"
       stroke-width="0.9"
       id="path1112"
       style="fill:none;stroke:#fff8dd;stroke-linejoin:round;stroke-opacity:1" />
  </g>
  <g
     id="g41"
     transform="translate(-0.8333000000000084 -0.03099999999994907)">
    <ellipse
       cx="93.333305"
       cy="277.53094"
       rx="10.2"
       ry="14.9"
       fill="none"
       id="ellipse1180"
       style="stroke:#fff8dd;stroke-linejoin:round;stroke-opacity:1" />
    <path
       d="m 103.5333,277.53093 c 0,1.65686 -4.177147,3.60001 -9.699997,3.60001 -5.9085,0.17817 -10.72675,-1.45608 -10.69698,-3.23754"
       fill="none"
       id="path1182"
       style="stroke:#fff8dd;stroke-linejoin:round;stroke-opacity:1"
       sodipodi:nodetypes="ccc" />
    <path
       d="m 103.5333,277.53093 c -0.0307,-1.15557 -2.55629,-2.52403 -9.699997,-2.39999 -5.9085,-0.17817 -10.72673,0.98219 -10.69696,2.76365"
       fill="none"
       stroke-dasharray="2, 1"
       id="path1184"
       style="stroke:#fff8dd;stroke-linejoin:round;stroke-opacity:1"
       sodipodi:nodetypes="ccc" />
  </g>
  <g
     id="g42"
     transform="translate(-0.5 -0.03100000000000591)">
    <path
       d="m 55.500034,268.03081 9,15 h -17 z"
       id="path1080"
       style="fill:none;stroke:#fff8dd;stroke-width:0.7;stroke-linejoin:round;stroke-opacity:1" />
    <path
       d="m 55.500034,287.03081 9,-14 h -17 z"
       stroke-dasharray="1.45361, 0.726804"
       id="path1082"
       style="fill:none;stroke:#fff8dd;stroke-width:0.7;stroke-linejoin:round;stroke-opacity:1" />
    <path
       d="m 56.500034,262.03081 13,8 v 15 l -13,8 -14,-8 v -15 z"
       id="path1084"
       style="fill:none;stroke:#fff8dd;stroke-width:0.7;stroke-linejoin:round;stroke-opacity:1" />
    <path
       d="m 42.500034,270.03081 13,-2 14,2 m -14,-2 1,-6 m -14,8 5,13 m 22,-13 -5,13 m 5,2 -5,-2 m -17,0 -5,2 m 5,-2 9,10 m 8,-10 -8,10"
       id="path1086"
       style="fill:none;stroke:#fff8dd;stroke-width:0.7;stroke-linejoin:round;stroke-opacity:1" />
    <path
       d="m 55.500034,287.03081 1,6 m -14,-8 13,2 14,-2 m -27,-15 5,3 9,-11 8,11 5,-3 m -27,15 5,-12 m 17,0 5,12"
       stroke-dasharray="1.4819, 0.740952"
       id="path1088"
       style="fill:none;stroke:#fff8dd;stroke-width:0.7;stroke-linejoin:round;stroke-opacity:1" />
  </g>
  <g
     id="g43"
     transform="translate(-0.16664999999999708 4.50030000000001)">
    <rect
       width="24.043867"
       height="24.043867"
       x="6.6447282"
       y="223.97743"
       ry="6.1923842"
       id="rect1202"
       style="fill:none;stroke:#fff8dd;stroke-width:0.96756;stroke-linejoin:round;stroke-opacity:1"
       rx="6.1923842" />
    <path
       d="m 8.6862827,246.43175 c -1.565284,-1.41155 -0.826093,-4.65389 1.6351723,-8.61821 2.431406,-3.86644 6.292944,-7.72797 10.15938,-10.15938 3.964323,-2.46126 7.296497,-3.01662 8.70804,-1.45134"
       id="path1204"
       style="fill:none;stroke:#fff8dd;stroke-width:0.96756;stroke-linejoin:round;stroke-opacity:1"
       sodipodi:nodetypes="cccc" />
    <path
       d="m 8.3863347,226.20282 c 1.411544,-1.56528 4.7437193,-1.00992 8.7080403,1.45134 3.866436,2.43141 7.727975,6.29294 10.15938,10.15938 2.461264,3.96432 2.980886,6.35485 1.93512,7.74048"
       id="path1206"
       style="fill:none;stroke:#fff8dd;stroke-width:0.96756;stroke-linejoin:round;stroke-opacity:1"
       sodipodi:nodetypes="cccc" />
    <path
       d="m 8.3863347,226.20282 c -1.565285,1.41154 -0.526145,3.77616 1.9351203,7.74048 2.431406,3.86644 6.292944,7.72797 10.15938,10.15938 3.964323,2.46126 7.296497,3.01662 8.70804,1.45134"
       stroke-dasharray="1.93512, 0.96756"
       id="path1208"
       style="fill:none;stroke:#fff8dd;stroke-width:0.96756;stroke-linejoin:round;stroke-opacity:1"
       sodipodi:nodetypes="cccc" />
    <path
       d="m 8.6827127,246.42852 c 1.4115443,1.56528 4.4473413,0.13542 8.4116623,-2.32584 3.866436,-2.43141 7.727975,-6.29294 10.15938,-10.15938 2.461264,-3.96432 3.500406,-6.32894 1.93512,-7.74048"
       stroke-dasharray="1.93512, 0.96756"
       id="path1210"
       style="fill:none;stroke:#fff8dd;stroke-width:0.96756;stroke-linejoin:round;stroke-opacity:1"
       sodipodi:nodetypes="cccc" />
  </g>
  <g
     id="g44"
     transform="translate(-0.8333000000000084 4.5)">
    <path
       d="m 93.008233,228.6747 6.82507,4.82507 -2,8 h -9 l -2,-8 z"
       id="path1214"
       style="fill:none;stroke:#fff8dd;stroke-width:0.9;stroke-linejoin:round;stroke-opacity:1"
       sodipodi:nodetypes="cccccc" />
    <path
       d="m 97.833303,221.49977 7.999997,6 2,8 -2,9 -7.999997,6 h -9 l -8,-6 -2,-9 2,-8 8,-6 z"
       id="path1216"
       style="fill:none;stroke:#fff8dd;stroke-width:0.9;stroke-linejoin:round;stroke-opacity:1" />
    <path
       d="m 92.833303,247.49977 -4,-6 -7,-2 5,-6 v -7 l 6.17493,2.17493 6.82507,-2.17493 v 7 l 4.999997,6 -6.999997,2 z m -12,-20 6,-1 2,-5 m 9,0 2,5 5.999997,1 m 2,8 -3,4 1,5 m -7.999997,6 -5,-3 -4,3 m -8,-6 1,-5 -3,-4"
       id="path1218"
       style="fill:none;stroke:#fff8dd;stroke-width:0.9;stroke-linejoin:round;stroke-opacity:1"
       sodipodi:nodetypes="cccccccccccccccccccccccccc" />
    <path
       d="m 92.936383,243.14931 6.89692,-4.64954 -2,-8 h -9 l -2,8 z"
       stroke-dasharray="1.777, 0.888"
       id="path1220"
       style="fill:none;stroke:#fff8dd;stroke-width:0.9;stroke-linejoin:round;stroke-opacity:1"
       sodipodi:nodetypes="cccccc" />
    <path
       d="m 92.833303,224.49977 -4,6 -7,2 5,6 v 7 l 6.10308,-2.35046 6.89692,2.35046 v -7 l 4.999997,-6 -6.999997,-2 z"
       stroke-dasharray="1.777, 0.888"
       id="path1222"
       style="fill:none;stroke:#fff8dd;stroke-width:0.9;stroke-linejoin:round;stroke-opacity:1"
       sodipodi:nodetypes="ccccccccccc" />
    <path
       d="m 80.833303,244.49977 6,1 2,5 m 9,0 2,-5 5.999997,-1 m 2,-8 -3,-4 1,-5 m -7.999997,-6 -5,3 -4,-3 m -8,6 1,5 -3,4"
       stroke-dasharray="1.77688, 0.88844"
       id="path1224"
       style="fill:none;stroke:#fff8dd;stroke-width:0.9;stroke-linejoin:round;stroke-opacity:1" />
  </g>
  <g
     id="g45"
     transform="translate(-0.5 4.5)">
    <path
       d="m 68.500043,235.99977 -9,14 -11,-5 -5,-9 5,-9 11,-5 z"
       id="path1092"
       style="fill:none;stroke:#fff8dd;stroke-width:0.9;stroke-linejoin:round;stroke-opacity:1" />
    <path
       d="m 43.500043,235.99977 12,4 13,-4"
       id="path1094"
       style="fill:none;stroke:#fff8dd;stroke-width:0.9;stroke-linejoin:round;stroke-opacity:1" />
    <path
       d="m 48.500043,226.99977 7,13 4,10"
       id="path1096"
       style="fill:none;stroke:#fff8dd;stroke-width:0.9;stroke-linejoin:round;stroke-opacity:1" />
    <path
       d="m 43.500043,235.99977 12,-4 13,4"
       stroke-dasharray="1.85704, 0.929"
       id="path1098"
       style="fill:none;stroke:#fff8dd;stroke-width:0.9;stroke-linejoin:round;stroke-opacity:1" />
    <path
       d="m 59.500043,221.99977 -4,10 -7,13"
       stroke-dasharray="1.857, 0.929"
       id="path1100"
       style="fill:none;stroke:#fff8dd;stroke-width:0.9;stroke-linejoin:round;stroke-opacity:1" />
  </g>
  <g
     id="g46"
     transform="translate(-0.16666000000000025 0.8018000000000001)">
    <path
       d="m 18.666661,77.698245 5,2 8,6 v 12 l -8,6.999995 -5,1 -6,-1 -7.0000003,-6.999995 v -12 l 7.0000003,-6 z"
       fill="none"
       stroke-width="0.8"
       id="path1116"
       style="stroke:#fff8dd;stroke-linejoin:round;stroke-opacity:1" />
    <path
       d="m 18.047711,88.394245 5.06324,9.6832 h -10.02911 z"
       fill="none"
       stroke-width="0.802826"
       id="path1118"
       style="stroke:#fff8dd;stroke-linejoin:round;stroke-opacity:1" />
    <path
       d="m 18.047711,96.002245 5.06324,-9.6832 h -10.02911 z"
       fill="none"
       stroke-width="0.802826"
       stroke-dasharray="1.60009, 0.800047"
       id="path1120"
       style="stroke:#fff8dd;stroke-linejoin:round;stroke-opacity:1" />
    <path
       d="m 13.666661,85.698245 -1,-6 h 11 v 6"
       fill="none"
       stroke-width="0.8"
       stroke-dasharray="1.6, 0.8"
       id="path1122"
       style="stroke:#fff8dd;stroke-linejoin:round;stroke-opacity:1" />
    <path
       d="m 13.666661,97.698245 -1,6.999995 h 11 v -6.999995 m -10,0 -8.0000003,-6 5.0000003,-9 8,6 m 5,9 8,-6 -5,-9 -8,6 m -8,-6 8,-5 8,5 m -21.0000003,3 5.0000003,-3 m 16,0 5,3"
       fill="none"
       stroke-width="0.8"
       id="path1124"
       style="stroke:#fff8dd;stroke-linejoin:round;stroke-opacity:1" />
    <path
       d="m 13.666661,85.698245 -8.0000003,6 5.0000003,8.999995 8,-4.999995 m 5,-10 8,6 -5,8.999995 -8,-4.999995 m -8,4.999995 8,5 8,-5 M 5.6666607,97.698245 10.666661,100.69824 m 21,-2.999995 -5,2.999995"
       fill="none"
       stroke-width="0.8"
       stroke-dasharray="1.6, 0.8"
       id="path1126"
       style="stroke:#fff8dd;stroke-linejoin:round;stroke-opacity:1" />
  </g>
  <g
     id="g47"
     transform="translate(-0.8333499999999958 0.8016999999999967)">
    <g
       stroke-width="2"
       id="g1140"
       style="fill:none;stroke:#fff8dd;stroke-linejoin:round;stroke-opacity:1"
       transform="translate(-73.759737,6.0263037)">
      <path
         d="m -56,132 a 22,7 0 0 1 -11,6 22,7 0 0 1 -22,0 22,7 0 0 1 -10,-6"
         transform="matrix(0.61817,0,0,0.43262,215,29)"
         id="path1134"
         style="stroke:#fff8dd;stroke-linejoin:round;stroke-opacity:1" />
      <path
         transform="matrix(0.61817,0,0,-0.43262,215,29)"
         d="m -56,-132 a 22,7 0 0 1 -11,7 22,7 0 0 1 -22,0 22,7 0 0 1 -10,-7"
         stroke-dasharray="4, 2"
         id="path1136"
         style="stroke:#fff8dd;stroke-linejoin:round;stroke-opacity:1" />
      <path
         d="m -100,132 23,-35 22,34"
         transform="matrix(0.61817,0,0,0.43262,215,29)"
         id="path1138"
         style="stroke:#fff8dd;stroke-linejoin:round;stroke-opacity:1" />
    </g>
    <path
       d="m 79.535729,92.140374 13.8892,14.206676 13.889191,-14.206676"
       stroke-width="0.983171"
       id="path1142"
       style="fill:none;stroke:#fff8dd;stroke-linejoin:round;stroke-opacity:1"
       sodipodi:nodetypes="ccc" />
  </g>
  <g
     id="g48"
     transform="translate(-0.5 0.8018000000000001)">
    <path
       d="m 56.500034,76.198201 13,13 v 5 l -13,12.999999 -14,-12.999999 v -5 z"
       id="path1146"
       style="fill:none;stroke:#fff8dd;stroke-linejoin:round;stroke-opacity:1" />
    <path
       d="m 42.500034,89.198201 9,5 5,12.999999 m 13,-12.999999 -8,-5 -5,-13 m -5,18 10,-5"
       id="path1148"
       style="fill:none;stroke:#fff8dd;stroke-linejoin:round;stroke-opacity:1" />
    <path
       d="m 69.500034,89.198201 -8,5 -5,12.999999 m -14,-12.999999 9,-5 5,-13 m 5,18 -10,-5"
       stroke-dasharray="1.9594, 0.9797"
       id="path1150"
       style="fill:none;stroke:#fff8dd;stroke-linejoin:round;stroke-opacity:1" />
  </g>
  <g
     id="g49"
     transform="translate(-0.16666000000000025 1)">
    <path
       d="m 18.514161,8.851579 12.6525,9.1348 -12.6525,8.8988 -12.3475003,-8.8988 z"
       fill="none"
       stroke-width="1.00128"
       id="path1166"
       style="stroke:#fff8dd;stroke-linejoin:round;stroke-opacity:1"
       sodipodi:nodetypes="ccccc" />
    <path
       d="m 18.514161,8.851579 0.6525,-6.8652 m 0,31 -0.6525,-6.1012 m -12.3475003,-8.8988 6.0000003,-10 7,-6 m 12,16 -5,-10 -7,-6 m 12,16 -5,10 -7,5 m -13.0000003,-15 6.0000003,10 7,5"
       fill="none"
       id="path1168"
       style="stroke:#fff8dd;stroke-linejoin:round;stroke-opacity:1"
       sodipodi:nodetypes="cccccccccccccccc" />
    <path
       d="m 12.166661,7.986379 13,20 m 0,-20 -13,20"
       fill="none"
       stroke-dasharray="2, 1"
       id="path1170"
       style="stroke:#fff8dd;stroke-linejoin:round;stroke-opacity:1" />
  </g>
  <g
     id="g50"
     transform="translate(-0.8332999999999942 0.9999600000000015)">
    <path
       d="m 94.833303,4.000038 6.999997,3 5,4 v 9 l -2,5 -4.999997,4 -8,2 -7,-3 -5,-4 v -9 l 2,-5 5,-4 z"
       id="path1186"
       style="fill:none;stroke:#fff8dd;stroke-width:0.7;stroke-linejoin:round;stroke-opacity:1" />
    <path
       d="m 106.8333,11.000038 -2,5 v 9 m -12.999997,6 5,-4 7.999997,-2 m -19.999997,3 6,-3 6,2 m -6,-2 7,-2 6.999997,2 m -6.999997,-2 v -9 l 6.999997,2 m -6.999997,-2 3.999997,-5 5,2 m -15.999997,14 v -8 l 7,-3 m -18,10 4,-2 7,3 m -7,-3 v -8 l -4,1 m 4,-1 7,3 m -7,-3 8,-4 6,4 m -6,-4 3,-6 6.999997,5 m -17.999997,5 3,-8"
       id="path1188"
       style="fill:none;stroke:#fff8dd;stroke-width:0.7;stroke-linejoin:round;stroke-opacity:1" />
    <path
       d="m 79.833303,24.000038 2,-5 v -9 m 13,-6 -5,4 -8,2 m 19.999997,-3 -5.999997,3 -6,-2 m 6,2 -7,3 -7,-3 m 7,3 v 8 l -7,-2 m 7,2 -4,5 -5,-2 m 16,-14 v 8 l -7,3 m 17.999997,-10 -4,2 -6.999997,-3 m 6.999997,3 v 8 l 4,-1 m -4,1 -6.999997,-3 m 6.999997,3 -7.999997,4 -6,-4 m 6,4 -3,6 -7,-5 m 17.999997,-5 -2.999997,8"
       stroke-dasharray="1.39324, 0.69662"
       id="path1190"
       style="fill:none;stroke:#fff8dd;stroke-width:0.7;stroke-linejoin:round;stroke-opacity:1" />
  </g>
  <g
     id="g51"
     transform="translate(-0.49994999999999834 0.9999800000000008)">
    <path
       d="m 69.17714,22.654828 a 12.88716,3.80317 0 0 1 -6.44358,3.25986 12.88716,3.80317 0 0 1 -12.88716,0 12.88716,3.80317 0 0 1 -6.44358,-3.25986"
       id="path1194"
       style="fill:none;stroke:#fff8dd;stroke-width:1.12829;stroke-linejoin:round;stroke-opacity:1" />
    <path
       d="m 69.17714,22.654828 a 12.88716,3.80317 0 0 0 -6.44358,-3.25986 12.88716,3.80317 0 0 0 -12.88716,0 12.88716,3.80317 0 0 0 -6.44358,3.25986"
       stroke-dasharray="2.25658, 1.12829"
       id="path1196"
       style="fill:none;stroke:#fff8dd;stroke-width:1.12829;stroke-linejoin:round;stroke-opacity:1" />
    <path
       d="m 42.81704,22.654828 13.47294,-19.01585 12.88716,18.47254 m 0,0 a 12.88716,9.77958 0 0 1 -12.88716,9.23627 12.88716,9.77958 0 0 1 -13.47294,-8.69296"
       id="path1198"
       style="fill:none;stroke:#fff8dd;stroke-width:1.12829;stroke-linejoin:round;stroke-opacity:1" />
  </g>
  <g
     id="g52"
     transform="translate(-0.16666000000000025 -1.5)">
    <path
       d="m 18.166661,301.00018 13,10 v 11 l -13,9 -12.0000003,-7 v -15 z"
       fill="none"
       stroke-width="0.9"
       id="path1154"
       style="stroke:#fff8dd;stroke-linejoin:round;stroke-opacity:1" />
    <path
       d="m 6.1666607,324.00018 15.0000003,1 10,-3"
       fill="none"
       stroke-width="0.9"
       id="path1156"
       style="stroke:#fff8dd;stroke-linejoin:round;stroke-opacity:1" />
    <path
       d="m 31.166661,322.00018 -16,-2 -9.0000003,4"
       fill="none"
       stroke-width="0.9"
       stroke-dasharray="1.76666, 0.883331"
       id="path1158"
       style="stroke:#fff8dd;stroke-linejoin:round;stroke-opacity:1" />
    <path
       d="m 31.166661,311.00018 -16,1 -9.0000003,-3"
       fill="none"
       stroke-width="0.9"
       id="path1160"
       style="stroke:#fff8dd;stroke-linejoin:round;stroke-opacity:1" />
    <path
       d="m 6.1666607,309.00018 15.0000003,-2 10,4 m -13,-10 3,6 m 0,0 -6,13 m 6,-13 10,15 m -25.0000003,-13 9.0000003,11 m 0,0 3,11"
       fill="none"
       stroke-width="0.9"
       stroke-dasharray="1.76666, 0.883331"
       id="path1162"
       style="stroke:#fff8dd;stroke-linejoin:round;stroke-opacity:1" />
    <path
       d="m 21.166661,325.00018 -3,6 m -3,-19 6,13 m -6,-13 -9.0000003,12 m 25.0000003,-13 -10,14 m -3,-24 -3,11"
       fill="none"
       stroke-width="0.9"
       id="path1164"
       style="stroke:#fff8dd;stroke-linejoin:round;stroke-opacity:1" />
  </g>
  <g
     id="g53"
     transform="translate(-0.83335000000001 -1.5003000000000384)">
    <path
       d="m 105.78519,315.88052 -3.1765,6.90642 -9.402437,7.9254 -12.32482,-8.26506 v -13.24674 l 11.99967,-7.9113 9.727587,7.68486 z"
       stroke-width="0.911548"
       id="path1228"
       style="fill:none;stroke:#fff8dd;stroke-linejoin:round;stroke-opacity:1"
       sodipodi:nodetypes="cccccccc" />
    <path
       d="m 80.881433,309.20054 9.11829,7.4931 12.608967,-7.71954 m -21.727257,13.47318 9.11829,-5.75364 12.608967,6.0933"
       stroke-width="0.815959"
       id="path1230"
       style="fill:none;stroke:#fff8dd;stroke-linejoin:round;stroke-opacity:1"
       sodipodi:nodetypes="cccccc" />
    <path
       d="m 102.60869,308.9741 v 13.81284"
       stroke-width="0.906621"
       id="path1232"
       style="fill:none;stroke:#fff8dd;stroke-linejoin:round;stroke-opacity:1"
       sodipodi:nodetypes="cc" />
    <path
       d="m 92.881103,301.28924 2.40115,8.1301 v 14.1207 l -2.076,7.1723 m 2.076,-21.293 10.502937,6.46118 -10.502937,7.65952"
       stroke-width="0.906621"
       stroke-dasharray="4, 2"
       id="path1234"
       style="fill:none;stroke:#fff8dd;stroke-linejoin:round;stroke-opacity:1"
       sodipodi:nodetypes="ccccccc" />
    <path
       d="m 80.881433,309.20054 3.83576,7.4931 10.56506,-7.2743 m -14.40082,13.02794 3.83576,-5.75364 10.56506,6.8464"
       stroke-width="0.906621"
       stroke-dasharray="4, 2"
       id="path1236"
       style="fill:none;stroke:#fff8dd;stroke-linejoin:round;stroke-opacity:1"
       sodipodi:nodetypes="cccccc" />
  </g>
  <g
     id="g54"
     transform="translate(-0.4998999999999967 -1.5000499999999874)">
    <path
       d="m 69.63441,322.44259 a 15.78528,15.78528 0 0 1 -13.06368,7.62048 15.78528,15.78528 0 0 1 -13.608,-7.07616"
       stroke-width="1.08864"
       id="path1240"
       style="fill:none;stroke:#fff8dd;stroke-linejoin:round;stroke-opacity:1" />
    <ellipse
       cx="198.92924"
       cy="246.55055"
       rx="3.973536"
       ry="11.795027"
       transform="rotate(30)"
       stroke-width="1.08864"
       id="ellipse1242"
       style="fill:none;stroke:#fff8dd;stroke-linejoin:round;stroke-opacity:1" />
    <ellipse
       cx="101.97547"
       cy="302.46561"
       rx="3.973536"
       ry="11.97504"
       transform="matrix(-0.8660254,0.5,0.5,0.8660254,0,0)"
       stroke-width="1.08864"
       id="ellipse1244"
       style="fill:none;stroke:#fff8dd;stroke-linejoin:round;stroke-opacity:1" />
    <path
       d="m 63.071102,306.21782 c -1.923207,-2.67931 -4.224675,-4.12583 -7.168383,-4.28614 -2.838771,0.0408 -5.330003,1.923 -6.926685,4.27052"
       stroke-width="1.08864"
       id="path1246"
       style="fill:none;stroke:#fff8dd;stroke-linejoin:round;stroke-opacity:1"
       sodipodi:nodetypes="ccc" />
    <path
       d="m 67.45713,325.16419 a 11.43072,3.26592 0 0 1 -10.8864,2.7216 11.43072,3.26592 0 0 1 -11.97504,-2.7216"
       stroke-width="0.870912"
       id="path1248"
       style="fill:none;stroke:#fff8dd;stroke-linejoin:round;stroke-opacity:1" />
    <path
       d="m 67.45713,325.16419 c -2.095819,-2.11576 -4.786913,-2.0942 -10.8864,-2.17728 -5.841669,-0.10249 -11.010597,0.52795 -11.97504,2.17728"
       stroke-width="0.870912"
       stroke-dasharray="3.28706, 1.64353"
       id="path1250"
       style="fill:none;stroke:#fff8dd;stroke-linejoin:round;stroke-opacity:1"
       sodipodi:nodetypes="ccc" />
  </g>
</svg>
